<svg width="9" height="9" viewBox="0 0 9 9" fill="none" xmlns="http://www.w3.org/2000/svg">
<path fill-rule="evenodd" clip-rule="evenodd" d="M4.78443 1.20647C4.55919 1.0916 4.25399 1.08982 4.02695 1.2044C3.23341 1.72043 2.39437 2.21234 1.67569 2.70558C1.56872 2.79195 1.49281 2.91745 1.49411 3.06517C1.4954 3.21228 1.57285 3.33611 1.67917 3.42105C2.39437 3.85206 3.23341 4.34397 4.0094 4.90877C4.23464 5.02364 4.53985 5.02541 4.76688 4.91084C5.58273 4.34397 5.91834 4.18 7.11815 3.40965C7.22511 3.32329 7.30102 3.19779 7.29973 3.05007C7.29844 2.90295 7.22098 2.77913 7.11467 2.69419C6.42177 2.21234 5.58273 1.72043 4.78443 1.20647ZM4.25796 1.64147C4.33839 1.60087 4.47052 1.60126 4.5515 1.64256C5.24711 2.04837 5.91834 2.54029 6.76891 3.05343C6.08615 3.52412 5.41492 4.01603 4.53588 4.47377C4.45544 4.51436 4.32331 4.51398 4.24233 4.47268C3.44003 4.01603 2.72999 3.52412 2.02493 3.06181C2.72999 2.54029 3.23341 2.21234 4.25796 1.64147Z" fill="#7E74F1"/>
<path d="M7.48359 4.26872C7.55721 4.38395 7.5213 4.53568 7.40338 4.60761L5.35369 5.85802C5.0793 5.98369 4.74165 6.14764 4.40807 6.14766C4.07449 6.14768 3.73684 5.98369 3.44003 5.85814L1.4128 4.62188C1.29486 4.54996 1.25892 4.39824 1.33253 4.283C1.40613 4.16776 1.5614 4.13265 1.67933 4.20456L3.70657 5.44083C3.88919 5.5522 4.14849 5.65576 4.40807 5.65575C4.66765 5.65573 4.9045 5.55214 5.08708 5.44075L7.13677 4.19034C7.25469 4.11841 7.40997 4.1535 7.48359 4.26872Z" fill="#7E74F1"/>
<path d="M7.48357 5.50003C7.55721 5.61525 7.52132 5.76698 7.4034 5.83893L5.62836 6.92209C5.0793 7.18462 4.82938 7.34686 4.39687 7.34689C3.96436 7.34691 3.40122 7.02064 3.16531 6.92223L1.41277 5.8532C1.29485 5.78126 1.25893 5.62954 1.33254 5.51431C1.40616 5.39908 1.56143 5.36398 1.67936 5.43592L3.4319 6.50495C3.69134 6.66321 4.03837 6.80357 4.39687 6.80355C4.75538 6.80353 5.10232 6.66313 5.3617 6.50485L7.13675 5.4217C7.25466 5.34974 7.40994 5.38482 7.48357 5.50003Z" fill="#7E74F1"/>
</svg>
