<svg width="10" height="10" viewBox="0 0 10 10" fill="none" xmlns="http://www.w3.org/2000/svg">
<g clip-path="url(#clip0_1_543)">
<path d="M4.37526 7.34615C4.37525 7.29541 4.36408 7.24529 4.34255 7.19935C4.32101 7.1534 4.28963 7.11276 4.25064 7.0803C4.21165 7.04783 4.16599 7.02434 4.11691 7.01148C4.06782 6.99863 4.01651 6.99673 3.96661 7.00592C3.51371 7.08903 2.94187 7.10153 2.78983 6.67448C2.65726 6.34373 2.43766 6.05502 2.15431 5.83895C2.13409 5.82796 2.11483 5.8153 2.09671 5.80111C2.07191 5.7357 2.02786 5.67934 1.97038 5.63947C1.9129 5.5996 1.84468 5.57809 1.77472 5.57778H1.77303C1.68156 5.57775 1.59379 5.61396 1.52895 5.67848C1.46411 5.74301 1.42747 5.83059 1.42706 5.92206C1.42571 6.20418 1.70764 6.38494 1.82202 6.44609C1.9569 6.58161 2.06529 6.74111 2.14164 6.9164C2.26767 7.27048 2.63391 7.80768 3.68669 7.73843C3.68704 7.75059 3.68737 7.76208 3.68754 7.77255L3.68905 7.86512C3.68905 7.95688 3.72551 8.04488 3.79039 8.10976C3.85527 8.17465 3.94327 8.2111 4.03503 8.2111C4.12678 8.2111 4.21478 8.17465 4.27967 8.10976C4.34455 8.04488 4.381 7.95688 4.381 7.86512L4.37931 7.75498C4.37762 7.68942 4.37526 7.59447 4.37526 7.34615ZM8.06574 2.11297C8.07672 2.06972 8.08754 2.02175 8.097 1.96769C8.15295 1.58213 8.10417 1.18862 7.95577 0.828402C7.93704 0.781441 7.90827 0.739143 7.87147 0.704476C7.83467 0.669808 7.79074 0.643608 7.74275 0.627714C7.61958 0.586155 7.16483 0.504392 6.29517 1.06018C5.57227 0.890063 4.81976 0.890063 4.09686 1.06018C3.23074 0.512533 2.77834 0.586847 2.65638 0.626039C2.6072 0.64129 2.56206 0.66735 2.52427 0.702311C2.48647 0.737272 2.45698 0.780247 2.43795 0.828087C2.28651 1.19523 2.23827 1.59676 2.29841 1.98932C2.30686 2.03358 2.31598 2.07447 2.32544 2.11197C2.03883 2.49373 1.88616 2.95938 1.89112 3.43673C1.89018 3.54323 1.89509 3.6497 1.90581 3.75567C2.02137 5.34802 3.05928 5.8261 3.78247 5.9903C3.76744 6.03355 3.75376 6.07983 3.74159 6.12883C3.71991 6.21785 3.73442 6.31183 3.78193 6.39016C3.82945 6.4685 3.90608 6.5248 3.99504 6.54672C4.084 6.56863 4.17802 6.55437 4.25649 6.50707C4.33495 6.45977 4.39145 6.38328 4.4136 6.29438C4.43562 6.17911 4.49204 6.07321 4.57544 5.99064C4.62587 5.94649 4.66238 5.88864 4.68053 5.82412C4.69868 5.7596 4.6977 5.6912 4.67769 5.62724C4.65768 5.56327 4.61951 5.5065 4.56783 5.46382C4.51614 5.42115 4.45317 5.39442 4.38658 5.38688C3.19155 5.25038 2.67276 4.76352 2.59472 3.69216C2.58607 3.6073 2.58218 3.52202 2.58306 3.43673C2.57751 3.09652 2.68991 2.76488 2.90116 2.49815C2.92238 2.47034 2.94499 2.44361 2.9689 2.41807C3.01126 2.37067 3.03974 2.31252 3.05121 2.25C3.06268 2.18748 3.05671 2.123 3.03394 2.06365C3.0106 2.00122 2.99263 1.9369 2.98022 1.87141C2.95204 1.68518 2.96128 1.49519 3.00742 1.31258C3.30811 1.39751 3.59111 1.53575 3.84294 1.72072C3.88458 1.74845 3.93171 1.76691 3.98111 1.77484C4.03052 1.78277 4.08105 1.77998 4.12928 1.76667C4.82853 1.5769 5.56573 1.57702 6.26491 1.76701C6.31341 1.78031 6.36421 1.78294 6.41382 1.77472C6.46342 1.76649 6.51066 1.74761 6.55227 1.71938C6.80292 1.53364 7.08473 1.39416 7.38443 1.30752C7.43036 1.48575 7.44063 1.6713 7.41466 1.85351C7.40213 1.92531 7.38255 1.9957 7.35621 2.06366C7.33344 2.12301 7.32747 2.18749 7.33894 2.25001C7.35042 2.31253 7.3789 2.37068 7.42125 2.41808C7.44795 2.44815 7.47464 2.48058 7.49862 2.51099C7.70838 2.77321 7.81888 3.10104 7.81065 3.43673C7.81128 3.52655 7.80694 3.61633 7.79764 3.70567C7.72146 4.76284 7.20064 5.25004 6.00004 5.38687C5.93343 5.39446 5.87045 5.42124 5.81877 5.46395C5.7671 5.50667 5.72894 5.56348 5.70895 5.62747C5.68896 5.69147 5.688 5.75989 5.70618 5.82443C5.72436 5.88896 5.76089 5.94682 5.81135 5.99098C5.89737 6.07575 5.95391 6.18588 5.97268 6.30519C5.99606 6.3978 6.0068 6.49316 6.00461 6.58866V7.39616C6.00122 7.62015 6.00122 7.78807 6.00122 7.8651C6.00122 7.95686 6.03767 8.04486 6.10255 8.10974C6.16743 8.17463 6.25543 8.21108 6.34719 8.21108C6.43895 8.21108 6.52695 8.17463 6.59183 8.10974C6.65671 8.04486 6.69316 7.95686 6.69316 7.8651C6.69316 7.7901 6.69316 7.62556 6.69654 7.40156V6.58866C6.69933 6.43568 6.68131 6.28303 6.64299 6.1349C6.63203 6.08628 6.61861 6.03824 6.60278 5.99098C7.1291 5.90355 7.6073 5.63219 7.95229 5.22521C8.29728 4.81823 8.48665 4.30204 8.48671 3.76851C8.49811 3.65829 8.50341 3.54753 8.5026 3.43673C8.51028 2.95886 8.35634 2.49241 8.06574 2.11298L8.06574 2.11297Z" fill="#F1F1F1" fill-opacity="0.7"/>
</g>
<defs>
<clipPath id="clip0_1_543">
<rect width="8.30334" height="8.30334" fill="white" transform="translate(0.891235 0.252686)"/>
</clipPath>
</defs>
</svg>
