<svg width="9" height="9" viewBox="0 0 9 9" fill="none" xmlns="http://www.w3.org/2000/svg">
<path d="M7.61929 4.23314C7.61929 5.95281 6.22521 7.34689 4.50554 7.34689M7.61929 4.23314C7.61929 2.51346 6.22521 1.11938 4.50554 1.11938M7.61929 4.23314H1.39178M4.50554 7.34689C2.78586 7.34689 1.39178 5.95281 1.39178 4.23314M4.50554 7.34689C4.50554 7.34689 5.88942 6.30897 5.88942 4.23314C5.88942 2.1573 4.50554 1.11938 4.50554 1.11938M4.50554 7.34689C4.50554 7.34689 3.12165 6.30897 3.12165 4.23314C3.12165 2.1573 4.50554 1.11938 4.50554 1.11938M1.39178 4.23314C1.39178 2.51346 2.78586 1.11938 4.50554 1.11938" stroke="#7E74F1" stroke-width="0.518958"/>
</svg>
