<svg width="12" height="12" viewBox="2 0 10 10" fill="none" xmlns="http://www.w3.org/2000/svg">
<g clip-path="url(#clip0_1_541)" filter="url(#filter0_d_1_541)">
<path d="M7.66845 2.67444C7.32631 2.67444 6.99186 2.7759 6.70739 2.96598C6.42291 3.15606 6.20119 3.42622 6.07026 3.74231C5.93934 4.0584 5.90508 4.40622 5.97183 4.74178C6.03857 5.07734 6.20333 5.38557 6.44525 5.6275C6.68718 5.86942 6.99541 6.03418 7.33097 6.10093C7.66653 6.16767 8.01435 6.13342 8.33044 6.00249C8.64653 5.87156 8.9167 5.64984 9.10677 5.36536C9.29685 5.08089 9.39831 4.74644 9.39831 4.4043C9.39831 3.94551 9.21606 3.50552 8.89164 3.18111C8.56723 2.85669 8.12724 2.67444 7.66845 2.67444ZM7.66845 5.44222C7.46317 5.44222 7.2625 5.38135 7.09181 5.2673C6.92113 5.15325 6.78809 4.99115 6.70954 4.8015C6.63098 4.61184 6.61043 4.40315 6.65047 4.20182C6.69052 4.00048 6.78937 3.81554 6.93453 3.67038C7.07968 3.52523 7.26462 3.42638 7.46596 3.38633C7.6673 3.34628 7.87599 3.36684 8.06564 3.44539C8.2553 3.52395 8.4174 3.65698 8.53144 3.82767C8.64549 3.99835 8.70636 4.19902 8.70636 4.4043C8.70636 4.67958 8.59701 4.94357 8.40237 5.13822C8.20772 5.33287 7.94372 5.44222 7.66845 5.44222ZM9.39831 2.32847C9.32988 2.32847 9.26299 2.34876 9.2061 2.38678C9.1492 2.42479 9.10486 2.47883 9.07867 2.54204C9.05249 2.60526 9.04564 2.67483 9.05898 2.74194C9.07233 2.80905 9.10528 2.8707 9.15367 2.91908C9.20205 2.96747 9.2637 3.00042 9.33081 3.01377C9.39792 3.02712 9.46749 3.02026 9.53071 2.99408C9.59392 2.96789 9.64796 2.92355 9.68597 2.86665C9.72399 2.80976 9.74428 2.74287 9.74428 2.67444C9.74428 2.58268 9.70783 2.49468 9.64295 2.4298C9.57807 2.36492 9.49007 2.32847 9.39831 2.32847ZM11.1074 3.10345C11.1017 2.80779 11.0455 2.51528 10.9413 2.23852C10.8447 1.98667 10.6963 1.75796 10.5055 1.56723C10.3148 1.37649 10.0861 1.22801 9.83423 1.13141C9.55748 1.02723 9.26496 0.97107 8.9693 0.965338C8.63371 0.94458 8.523 0.94458 7.66845 0.94458C6.8139 0.94458 6.70319 0.94458 6.36759 0.965338C6.07193 0.97107 5.77942 1.02723 5.50266 1.13141C5.25082 1.22801 5.0221 1.37649 4.83137 1.56723C4.64064 1.75796 4.49215 1.98667 4.39555 2.23852C4.29138 2.51528 4.23522 2.80779 4.22948 3.10345C4.20872 3.4425 4.20872 3.55321 4.20872 4.4043C4.20872 5.25539 4.20872 5.36611 4.22948 5.70516C4.23522 6.00082 4.29138 6.29333 4.39555 6.57009C4.49215 6.82193 4.64064 7.05065 4.83137 7.24138C5.0221 7.43211 5.25082 7.5806 5.50266 7.6772C5.77942 7.78137 6.07193 7.83754 6.36759 7.84327C6.71356 7.84327 6.8139 7.86403 7.66845 7.86403C8.523 7.86403 8.63371 7.86403 8.9693 7.84327C9.26496 7.83754 9.55748 7.78137 9.83423 7.6772C10.0861 7.5806 10.3148 7.43211 10.5055 7.24138C10.6963 7.05065 10.8447 6.82193 10.9413 6.57009C11.0455 6.29333 11.1017 6.00082 11.1074 5.70516C11.1074 5.35919 11.1282 5.25539 11.1282 4.4043C11.1282 3.55321 11.1282 3.4425 11.1074 3.10345ZM10.4155 5.67402C10.4094 5.89358 10.3685 6.11078 10.2944 6.31753C10.2331 6.48095 10.1362 6.62867 10.0107 6.75C9.89008 6.87553 9.74206 6.97145 9.57821 7.03023C9.37098 7.10742 9.15233 7.14951 8.93125 7.15478C8.60603 7.15478 8.5057 7.17208 7.66499 7.17208C6.82428 7.17208 6.7274 7.17208 6.40219 7.17208C6.18147 7.16638 5.96306 7.1255 5.75522 7.05099C5.5918 6.98968 5.44408 6.89277 5.32276 6.76729C5.19722 6.6467 5.10131 6.49868 5.04252 6.33483C4.96564 6.1287 4.92356 5.91124 4.91797 5.69132C4.91797 5.34535 4.91797 5.25885 4.91797 4.4216C4.91797 3.58435 4.91797 3.48402 4.91797 3.15188C4.92393 2.93088 4.966 2.71234 5.04252 2.50492C5.10222 2.34253 5.19804 2.19583 5.32276 2.07591C5.44335 1.95037 5.59137 1.85446 5.75522 1.79567C5.96246 1.71848 6.18111 1.67639 6.40219 1.67112C6.7274 1.63652 6.82773 1.63652 7.66845 1.63652C8.50916 1.63652 8.60949 1.63652 8.93471 1.63652C9.15687 1.64217 9.3766 1.68425 9.58513 1.76107C9.74752 1.82077 9.89422 1.9166 10.0141 2.04131C10.1397 2.16191 10.2356 2.30993 10.2944 2.47378C10.3791 2.68432 10.427 2.90783 10.4362 3.13458C10.4362 3.48056 10.4535 3.56705 10.4535 4.4043C10.4535 5.24156 10.4362 5.34189 10.4362 5.67402H10.4155Z" fill="#F1F1F1" fill-opacity="0.7"/>
</g>
<defs>
<filter id="filter0_d_1_541" x="-0.483307" y="0.252686" width="16.3033" height="16.3033" filterUnits="userSpaceOnUse" color-interpolation-filters="sRGB">
<feFlood flood-opacity="0" result="BackgroundImageFix"/>
<feColorMatrix in="SourceAlpha" type="matrix" values="0 0 0 0 0 0 0 0 0 0 0 0 0 0 0 0 0 0 127 0" result="hardAlpha"/>
<feOffset dy="4"/>
<feGaussianBlur stdDeviation="2"/>
<feComposite in2="hardAlpha" operator="out"/>
<feColorMatrix type="matrix" values="0 0 0 0 0 0 0 0 0 0 0 0 0 0 0 0 0 0 0.25 0"/>
<feBlend mode="normal" in2="BackgroundImageFix" result="effect1_dropShadow_1_541"/>
<feBlend mode="normal" in="SourceGraphic" in2="effect1_dropShadow_1_541" result="shape"/>
</filter>
<clipPath id="clip0_1_541">
<rect width="8.30334" height="8.30334" fill="white" transform="translate(3.51669 0.252686)"/>
</clipPath>
</defs>
</svg>
