<svg width="10" height="10" viewBox="0 0 10 10" fill="none" xmlns="http://www.w3.org/2000/svg">
<g clip-path="url(#clip0_1_547)">
<path d="M6.69461 3.36609C6.38487 3.36596 6.07993 3.44257 5.80704 3.58908C5.78214 3.5235 5.73787 3.46704 5.68012 3.42721C5.62236 3.38738 5.55386 3.36606 5.4837 3.36609H4.09981C4.05437 3.36607 4.00937 3.375 3.96738 3.39238C3.9254 3.40975 3.88725 3.43524 3.85512 3.46737C3.82298 3.4995 3.7975 3.53765 3.78012 3.57964C3.76275 3.62162 3.75382 3.66662 3.75384 3.71207V7.86373C3.75381 7.90917 3.76275 7.95417 3.78012 7.99616C3.7975 8.03815 3.82298 8.0763 3.85511 8.10843C3.88725 8.14056 3.9254 8.16605 3.96738 8.18342C4.00937 8.2008 4.05437 8.20973 4.09981 8.2097H5.4837C5.52914 8.20973 5.57414 8.2008 5.61613 8.18342C5.65812 8.16605 5.69627 8.14056 5.7284 8.10843C5.76053 8.0763 5.78602 8.03815 5.80339 7.99616C5.82077 7.95417 5.8297 7.90917 5.82967 7.86373V5.96089C5.82967 5.86913 5.86613 5.78113 5.93101 5.71625C5.99589 5.65136 6.08389 5.61491 6.17565 5.61491C6.2674 5.61491 6.3554 5.65136 6.42029 5.71625C6.48517 5.78113 6.52162 5.86913 6.52162 5.96089V7.86373C6.52159 7.90917 6.53052 7.95417 6.5479 7.99616C6.56528 8.03815 6.59076 8.0763 6.62289 8.10843C6.65502 8.14056 6.69318 8.16605 6.73516 8.18342C6.77715 8.2008 6.82215 8.20973 6.86759 8.2097H8.25148C8.29692 8.20973 8.34192 8.2008 8.38391 8.18342C8.4259 8.16605 8.46405 8.14056 8.49618 8.10843C8.52831 8.0763 8.55379 8.03815 8.57117 7.99616C8.58855 7.95417 8.59748 7.90917 8.59745 7.86373V5.26894C8.59683 4.76447 8.39615 4.28083 8.03943 3.92412C7.68271 3.5674 7.19908 3.36672 6.69461 3.36609ZM7.90551 7.51776H7.21356V5.96089C7.21356 5.68561 7.10421 5.42161 6.90956 5.22697C6.71492 5.03232 6.45092 4.92297 6.17565 4.92297C5.90037 4.92297 5.63638 5.03232 5.44173 5.22697C5.24708 5.42161 5.13773 5.68561 5.13773 5.96089V7.51776H4.44579V4.05804H5.13773V4.3013C5.13777 4.37299 5.16007 4.44289 5.20154 4.50136C5.24302 4.55983 5.30162 4.60398 5.36927 4.62771C5.43691 4.65145 5.51025 4.6536 5.57917 4.63386C5.64808 4.61412 5.70917 4.57348 5.75399 4.51753C5.90926 4.32034 6.12222 4.17656 6.36316 4.10626C6.60409 4.03596 6.86097 4.04265 7.09791 4.1254C7.33486 4.20815 7.54005 4.36283 7.68483 4.56785C7.82962 4.77286 7.90677 5.01796 7.90551 5.26894V7.51776ZM3.0619 3.36609H1.67801C1.63257 3.36607 1.58757 3.375 1.54558 3.39238C1.50359 3.40975 1.46544 3.43524 1.43331 3.46737C1.40118 3.4995 1.3757 3.53765 1.35832 3.57964C1.34094 3.62162 1.33201 3.66662 1.33204 3.71207V7.86373C1.33201 7.90917 1.34094 7.95417 1.35832 7.99616C1.37569 8.03815 1.40118 8.0763 1.43331 8.10843C1.46544 8.14056 1.50359 8.16605 1.54558 8.18342C1.58757 8.2008 1.63257 8.20973 1.67801 8.2097H3.0619C3.10734 8.20973 3.15234 8.2008 3.19433 8.18342C3.23631 8.16605 3.27446 8.14056 3.30659 8.10843C3.33873 8.0763 3.36421 8.03815 3.38159 7.99616C3.39896 7.95417 3.4079 7.90917 3.40787 7.86373V3.71207C3.40789 3.66662 3.39896 3.62162 3.38159 3.57964C3.36421 3.53765 3.33873 3.4995 3.30659 3.46737C3.27446 3.43524 3.23631 3.40975 3.19432 3.39238C3.15234 3.375 3.10734 3.36607 3.0619 3.36609ZM2.71592 7.51776H2.02398V4.05804H2.71592V7.51776ZM2.37502 0.786178C2.22361 0.777115 2.07194 0.798944 1.92923 0.850337C1.78652 0.90173 1.65575 0.981614 1.54488 1.08513C1.43401 1.18865 1.34536 1.31363 1.28431 1.45249C1.22326 1.59134 1.19109 1.74116 1.18976 1.89284C1.18843 2.04451 1.21797 2.19488 1.27657 2.33478C1.33517 2.47468 1.42162 2.6012 1.53066 2.70665C1.63969 2.8121 1.76904 2.89426 1.91082 2.94815C2.05261 3.00204 2.20387 3.02653 2.35542 3.02012H2.36522C2.51703 3.02914 2.66909 3.00711 2.8121 2.95537C2.95511 2.90364 3.08606 2.82329 3.19697 2.71923C3.30788 2.61518 3.3964 2.4896 3.45714 2.35017C3.51787 2.21075 3.54954 2.0604 3.55021 1.90833C3.55087 1.75625 3.52053 1.60563 3.46102 1.46568C3.40151 1.32573 3.31409 1.19938 3.2041 1.09435C3.09411 0.989326 2.96386 0.90783 2.82131 0.854844C2.67876 0.801857 2.5269 0.778493 2.37502 0.786178H2.37502ZM2.36522 2.32818H2.35542C2.29559 2.33544 2.2349 2.32983 2.17742 2.31172C2.11993 2.29361 2.06698 2.26341 2.02213 2.22316C1.97727 2.18291 1.94153 2.13353 1.91732 2.07834C1.89311 2.02315 1.88098 1.96342 1.88174 1.90315C1.88174 1.64502 2.07534 1.47812 2.37502 1.47812C2.43546 1.47006 2.49693 1.47505 2.55528 1.49275C2.61363 1.51045 2.66751 1.54044 2.71329 1.58072C2.75907 1.62099 2.79569 1.67061 2.82068 1.72623C2.84567 1.78185 2.85845 1.84218 2.85816 1.90315C2.85816 2.16128 2.66457 2.32818 2.36522 2.32818Z" fill="#F1F1F1" fill-opacity="0.7"/>
</g>
<defs>
<clipPath id="clip0_1_547">
<rect width="8.30334" height="8.30334" fill="white" transform="translate(0.640045 0.252686)"/>
</clipPath>
</defs>
</svg>
