<svg width="9" height="8" viewBox="0 0 9 8" fill="none" xmlns="http://www.w3.org/2000/svg">
<g clip-path="url(#clip0_1_604)">
<path d="M5.40491 2.3037C5.63732 2.34904 5.86803 2.45154 6.03547 2.61898C6.2029 2.78641 6.3054 3.01712 6.35074 3.24953M5.56255 1.20023C6.04541 1.25387 6.47991 1.48747 6.82366 1.83078C7.16741 2.1741 7.39997 2.6091 7.45422 3.09189M7.45404 5.44912V6.30345C7.45537 6.63003 7.16172 6.90274 6.832 6.873C3.98618 6.87523 1.77924 4.64778 1.78146 1.82107C1.75177 1.4931 2.02313 1.20056 2.34929 1.20025H3.20532C3.34379 1.19889 3.47804 1.24783 3.58304 1.33795C3.88155 1.59416 4.07355 2.46379 3.99968 2.80949C3.942 3.0794 3.66993 3.26823 3.48495 3.45284C3.89115 4.16579 4.48263 4.7561 5.197 5.1615C5.38197 4.97688 5.57118 4.70535 5.84162 4.64778C6.18854 4.57394 7.06376 4.76622 7.31894 5.06681C7.40944 5.17339 7.45752 5.30946 7.45404 5.44912Z" stroke="#7E74F1" stroke-width="0.472917" stroke-linecap="round" stroke-linejoin="round"/>
</g>
<defs>
<clipPath id="clip0_1_604">
<rect width="7.56667" height="7.56667" fill="white" transform="translate(0.833374 0.254303)"/>
</clipPath>
</defs>
</svg>
