<svg width="10" height="10" viewBox="0 0 10 10" fill="none" xmlns="http://www.w3.org/2000/svg">
<g clip-path="url(#clip0_1_545)">
<path d="M8.21986 1.61937C8.2199 1.55826 8.20374 1.49823 8.17304 1.44539C8.14233 1.39256 8.09817 1.3488 8.04505 1.31859C7.99194 1.28837 7.93176 1.27278 7.87065 1.27338C7.80955 1.27399 7.74969 1.29078 7.69718 1.32205C7.49468 1.44258 7.27667 1.53488 7.04918 1.5964C6.7243 1.31763 6.30995 1.16508 5.88187 1.16664C5.41224 1.16718 4.9612 1.35021 4.62399 1.67708C4.28678 2.00395 4.0898 2.44907 4.07464 2.91846C3.14881 2.77082 2.3097 2.28759 1.71734 1.56091C1.68165 1.51761 1.63606 1.48353 1.58444 1.46153C1.53281 1.43954 1.47665 1.43029 1.42069 1.43455C1.36477 1.43915 1.31081 1.45731 1.26348 1.48745C1.21615 1.51759 1.17688 1.55881 1.14905 1.60753C1.00635 1.85657 0.924386 2.13575 0.909827 2.42241C0.895268 2.70906 0.94852 2.99511 1.06526 3.25732L1.06458 3.25799C1.01212 3.29031 0.968816 3.33555 0.938825 3.38938C0.908834 3.44321 0.893155 3.50383 0.893287 3.56545C0.892651 3.61629 0.8957 3.6671 0.90241 3.71749C0.937746 4.15282 1.13068 4.5603 1.44502 4.86352C1.42369 4.90415 1.41068 4.94862 1.40673 4.99433C1.40279 5.04004 1.40799 5.08608 1.42204 5.12976C1.55909 5.55674 1.85053 5.91721 2.23934 6.14065C1.84432 6.2934 1.4178 6.34665 0.997348 6.29573C0.919529 6.28596 0.840702 6.30294 0.773798 6.34386C0.706893 6.38479 0.655883 6.44723 0.629135 6.52096C0.602387 6.59469 0.60149 6.67532 0.626591 6.74962C0.651691 6.82392 0.701299 6.88749 0.767277 6.9299C1.49039 7.39563 2.33234 7.64325 3.19246 7.64313C4.16785 7.65411 5.11952 7.34242 5.89943 6.75656C6.67935 6.1707 7.24378 5.34352 7.50494 4.40368C7.62709 3.99427 7.68946 3.56936 7.6901 3.14211C7.6901 3.11948 7.6901 3.09617 7.68976 3.07285C7.87039 2.87805 8.01033 2.64914 8.10135 2.39956C8.19238 2.14997 8.23267 1.88473 8.21986 1.61937ZM7.07585 2.7306C7.01871 2.79818 6.98979 2.88518 6.9951 2.97352C6.99848 3.03061 6.99814 3.08804 6.99814 3.14211C6.99744 3.50315 6.94452 3.86219 6.84104 4.20808C6.62775 5.00775 6.15226 5.71272 5.49074 6.21008C4.82921 6.70743 4.01992 6.9684 3.19246 6.95119C2.89523 6.95128 2.59902 6.91635 2.30996 6.84713C2.67857 6.72834 3.02322 6.5452 3.32795 6.30621C3.38407 6.26202 3.42515 6.20154 3.44554 6.13308C3.46593 6.06461 3.46463 5.99152 3.44183 5.92382C3.41903 5.85612 3.37584 5.79714 3.31818 5.75496C3.26053 5.71279 3.19123 5.68949 3.11981 5.68826C2.83225 5.68378 2.55765 5.56786 2.35387 5.36492C2.40557 5.35512 2.45692 5.34296 2.50794 5.32843C2.58267 5.30716 2.64807 5.26135 2.69361 5.19839C2.73914 5.13543 2.76217 5.05898 2.75897 4.98134C2.75577 4.90371 2.72653 4.82941 2.67597 4.7704C2.62541 4.7114 2.55646 4.67113 2.48023 4.65608C2.31332 4.62312 2.15625 4.5521 2.02124 4.44856C1.88623 4.34502 1.77692 4.21174 1.7018 4.05908C1.76432 4.06761 1.82725 4.07291 1.89032 4.07496C1.96526 4.07609 2.03861 4.05336 2.09977 4.01005C2.16093 3.96675 2.20673 3.90511 2.23055 3.83406C2.25338 3.76236 2.2522 3.68518 2.22721 3.6142C2.20221 3.54323 2.15475 3.48235 2.09203 3.44079C1.93985 3.33941 1.8152 3.20186 1.72923 3.04048C1.64326 2.8791 1.59866 2.69891 1.59942 2.51606C1.59942 2.49308 1.6001 2.47011 1.60145 2.44747C2.37686 3.17064 3.38263 3.59695 4.44154 3.65128C4.49499 3.65338 4.54822 3.64332 4.59721 3.62184C4.6462 3.60036 4.68967 3.56802 4.72433 3.52728C4.75864 3.48615 4.78294 3.43761 4.79531 3.38549C4.80768 3.33337 4.80778 3.27909 4.7956 3.22692C4.77582 3.14436 4.76572 3.05977 4.76553 2.97488C4.76585 2.67891 4.88356 2.39515 5.09284 2.18587C5.30212 1.97659 5.58588 1.85888 5.88184 1.85857C6.03412 1.85816 6.18482 1.88933 6.32445 1.9501C6.46407 2.01087 6.58958 2.09992 6.69305 2.21164C6.73296 2.25457 6.78318 2.28658 6.83894 2.30462C6.89471 2.32265 6.95416 2.32613 7.01165 2.3147C7.15377 2.28704 7.29385 2.24979 7.43094 2.20321C7.33744 2.39452 7.21794 2.572 7.07585 2.7306Z" fill="#F1F1F1" fill-opacity="0.7"/>
</g>
<defs>
<clipPath id="clip0_1_545">
<rect width="8.30334" height="8.30334" fill="white" transform="translate(0.265587 0.252686)"/>
</clipPath>
</defs>
</svg>
